<svg width="15" height="17" viewBox="0 0 15 17" fill="none" xmlns="http://www.w3.org/2000/svg">
<path fill-rule="evenodd" clip-rule="evenodd" d="M7.44211 0.84375C10.3628 0.84375 12.7306 3.21148 12.7306 6.13221V10.113L13.2825 12.0113C13.4431 12.5637 13.1254 13.1417 12.573 13.3023C12.4785 13.3298 12.3806 13.3437 12.2822 13.3437H2.71745C2.14215 13.3437 1.67578 12.8774 1.67578 12.3021C1.67578 12.2214 1.68516 12.141 1.70372 12.0625L2.15365 10.159V6.13221C2.15365 3.21148 4.52138 0.84375 7.44211 0.84375Z" stroke="#FFFADE" stroke-width="1.5"/>
<path d="M5.0957 13.3438C5.0957 14.6714 6.17194 15.7476 7.49955 15.7476C8.82716 15.7476 9.9034 14.6714 9.9034 13.3438" stroke="#FFFADE" stroke-width="1.5"/>
</svg>
