<svg width="16" height="21" viewBox="0 0 16 21" fill="none" xmlns="http://www.w3.org/2000/svg">
<path d="M9.67161 4.73625C10.3263 4.90015 10.9279 5.31101 11.3995 5.91623C11.8712 6.52145 12.1913 7.29351 12.319 8.13359M9.67161 1.2959C11.0317 1.48979 12.3 2.27139 13.2683 3.51235C14.2365 4.75331 14.8472 6.37988 15 8.12499M14.3298 14.9885V17.5687C14.3305 17.8083 14.2923 18.0454 14.2175 18.2649C14.1427 18.4843 14.033 18.6813 13.8955 18.8433C13.758 19.0052 13.5956 19.1285 13.4187 19.2052C13.2419 19.282 13.0545 19.3105 12.8686 19.2889C10.8062 19.0013 8.8251 18.097 7.08449 16.6484C5.46509 15.3279 4.09211 13.566 3.06307 11.4879C1.93035 9.24414 1.22544 6.6895 1.00544 4.03097C0.988691 3.79313 1.01072 3.55342 1.07012 3.3271C1.12952 3.10078 1.22499 2.89281 1.35046 2.71644C1.47592 2.54006 1.62863 2.39914 1.79886 2.30265C1.96909 2.20616 2.15311 2.15621 2.33921 2.15599H4.34993C4.6752 2.15188 4.99053 2.29969 5.23716 2.57187C5.48379 2.84404 5.64488 3.22202 5.6904 3.63533C5.77527 4.46108 5.93266 5.27185 6.15957 6.05218C6.24974 6.36002 6.26926 6.69459 6.2158 7.01623C6.16235 7.33788 6.03816 7.63311 5.85796 7.86696L5.00676 8.95927C5.96088 11.1125 7.35021 12.8954 9.02818 14.1198L9.87938 13.0275C10.0616 12.7962 10.2917 12.6369 10.5423 12.5683C10.793 12.4997 11.0537 12.5247 11.2936 12.6404C11.9017 12.9316 12.5335 13.1336 13.177 13.2425C13.5025 13.3014 13.7999 13.5119 14.0124 13.8338C14.225 14.1557 14.3379 14.5667 14.3298 14.9885Z" stroke="white" stroke-width="2" stroke-linecap="round" stroke-linejoin="round"/>
</svg>
