<svg width="25" height="25" viewBox="0 0 25 25" fill="none" xmlns="http://www.w3.org/2000/svg">
<path d="M19.5312 3.125H15.625C15.625 1.40137 14.2236 0 12.5 0C10.7764 0 9.375 1.40137 9.375 3.125H5.46875C4.1748 3.125 3.125 4.1748 3.125 5.46875V22.6562C3.125 23.9502 4.1748 25 5.46875 25H19.5312C20.8252 25 21.875 23.9502 21.875 22.6562V5.46875C21.875 4.1748 20.8252 3.125 19.5312 3.125ZM7.8125 20.7031C7.16309 20.7031 6.64062 20.1807 6.64062 19.5312C6.64062 18.8818 7.16309 18.3594 7.8125 18.3594C8.46191 18.3594 8.98438 18.8818 8.98438 19.5312C8.98438 20.1807 8.46191 20.7031 7.8125 20.7031ZM7.8125 16.0156C7.16309 16.0156 6.64062 15.4932 6.64062 14.8438C6.64062 14.1943 7.16309 13.6719 7.8125 13.6719C8.46191 13.6719 8.98438 14.1943 8.98438 14.8438C8.98438 15.4932 8.46191 16.0156 7.8125 16.0156ZM7.8125 11.3281C7.16309 11.3281 6.64062 10.8057 6.64062 10.1562C6.64062 9.50684 7.16309 8.98438 7.8125 8.98438C8.46191 8.98438 8.98438 9.50684 8.98438 10.1562C8.98438 10.8057 8.46191 11.3281 7.8125 11.3281ZM12.5 1.95312C13.1494 1.95312 13.6719 2.47559 13.6719 3.125C13.6719 3.77441 13.1494 4.29688 12.5 4.29688C11.8506 4.29688 11.3281 3.77441 11.3281 3.125C11.3281 2.47559 11.8506 1.95312 12.5 1.95312ZM18.75 19.9219C18.75 20.1367 18.5742 20.3125 18.3594 20.3125H11.3281C11.1133 20.3125 10.9375 20.1367 10.9375 19.9219V19.1406C10.9375 18.9258 11.1133 18.75 11.3281 18.75H18.3594C18.5742 18.75 18.75 18.9258 18.75 19.1406V19.9219ZM18.75 15.2344C18.75 15.4492 18.5742 15.625 18.3594 15.625H11.3281C11.1133 15.625 10.9375 15.4492 10.9375 15.2344V14.4531C10.9375 14.2383 11.1133 14.0625 11.3281 14.0625H18.3594C18.5742 14.0625 18.75 14.2383 18.75 14.4531V15.2344ZM18.75 10.5469C18.75 10.7617 18.5742 10.9375 18.3594 10.9375H11.3281C11.1133 10.9375 10.9375 10.7617 10.9375 10.5469V9.76562C10.9375 9.55078 11.1133 9.375 11.3281 9.375H18.3594C18.5742 9.375 18.75 9.55078 18.75 9.76562V10.5469Z" fill="black"/>
</svg>
