<svg width="17" height="17" viewBox="0 0 17 17" fill="none" xmlns="http://www.w3.org/2000/svg">
<path fill-rule="evenodd" clip-rule="evenodd" d="M8.50126 10.439C7.31779 10.439 6.3584 9.47965 6.3584 8.29618C6.3584 7.11271 7.31779 6.15332 8.50126 6.15332C9.68473 6.15332 10.6441 7.11271 10.6441 8.29618C10.6441 8.8645 10.4184 9.40955 10.0165 9.81141C9.61463 10.2133 9.06958 10.439 8.50126 10.439Z" stroke="#FFFADE" stroke-width="1.5" stroke-linecap="round" stroke-linejoin="round"/>
<path fill-rule="evenodd" clip-rule="evenodd" d="M14.1968 12.6496V11.2117C14.1968 10.8557 14.3382 10.5142 14.59 10.2625L15.6068 9.24567C16.1311 8.72139 16.1311 7.87138 15.6068 7.3471L14.59 6.33031C14.3382 6.07855 14.1968 5.73708 14.1968 5.38103V3.94209C14.1968 3.20065 13.5957 2.59959 12.8543 2.59959H11.4154C11.0593 2.59959 10.7178 2.45815 10.4661 2.20638L9.44929 1.18959C8.92501 0.665319 8.07499 0.665319 7.55071 1.18959L6.53393 2.20638C6.28216 2.45815 5.94069 2.59959 5.58464 2.59959H4.14571C3.78947 2.59959 3.44784 2.74118 3.19604 2.99318C2.94424 3.24518 2.80292 3.58693 2.80321 3.94317V5.38103C2.8032 5.73708 2.66176 6.07855 2.40999 6.33031L1.3932 7.3471C0.868932 7.87138 0.868932 8.72139 1.3932 9.24567L2.40999 10.2625C2.66176 10.5142 2.8032 10.8557 2.80321 11.2117V12.6496C2.80321 13.391 3.40427 13.9921 4.14571 13.9921H5.58464C5.94069 13.9921 6.28216 14.1336 6.53393 14.3853L7.55071 15.4021C8.07499 15.9264 8.92501 15.9264 9.44929 15.4021L10.4661 14.3853C10.7178 14.1336 11.0593 13.9921 11.4154 13.9921H12.8532C13.2095 13.9924 13.5512 13.8511 13.8032 13.5993C14.0552 13.3475 14.1968 13.0058 14.1968 12.6496Z" stroke="#FFFADE" stroke-width="1.5" stroke-linecap="round" stroke-linejoin="round"/>
</svg>
